<svg width="179" height="46" viewBox="0 0 179 46" fill="none" xmlns="http://www.w3.org/2000/svg">
<path d="M58.1772 27.4319V7.30627H64.5408L69.26 25.8583H69.3307L74.0128 7.30627H80.3394V27.4319H76.5509L76.8016 8.95059H76.7663L71.9394 27.4319H66.5772L61.8227 8.95059H61.752L61.9657 27.4319H58.1772Z" fill="white"/>
<path d="M88.7764 27.7901C87.4889 27.7901 86.4891 27.5393 85.7739 27.0395C85.0586 26.5396 84.5402 25.895 84.2187 25.109C83.8973 24.3231 83.7004 23.495 83.6297 22.6249C83.5573 21.7548 83.522 20.9621 83.522 20.2485V12.7422H87.0614V20.2485C87.0614 20.9873 87.1321 21.6908 87.2751 22.3573C87.4182 23.0255 87.7211 23.5607 88.1873 23.9663C88.6518 24.3719 89.3604 24.5738 90.3147 24.5738C91.2437 24.5738 91.9472 24.3651 92.4235 23.9478C92.8998 23.5304 93.2213 23.0002 93.3896 22.3573C93.5562 21.7144 93.6521 21.0462 93.6757 20.3545L93.711 12.7405H97.4288V27.4333H94.3186L93.711 24.6883L93.6386 24.6445C93.5915 24.7876 93.472 25.0266 93.2818 25.3598C93.09 25.6931 92.8106 26.0515 92.442 26.4319C92.0717 26.8139 91.5904 27.1354 90.9946 27.398C90.3971 27.6588 89.6583 27.7901 88.7764 27.7901Z" fill="white"/>
<path d="M100.537 27.4317V7.30603H104.112V27.4317H100.537Z" fill="white"/>
<path d="M111.977 27.4316C110.809 27.4316 109.934 27.1455 109.35 26.5732C108.766 26.001 108.473 25.072 108.473 23.7845V15.3121H106.256V12.7387C106.948 12.7387 107.483 12.6664 107.865 12.525C108.246 12.3819 108.52 12.0487 108.688 11.5236C108.855 11.0002 108.939 10.1536 108.939 8.9856H111.871V12.7387H115.232V15.3121H111.871V24.5704H115.303V27.4299H111.977V27.4316Z" fill="white"/>
<path d="M120.485 11.1316C119.699 11.1316 119.18 10.9414 118.93 10.5593C118.679 10.179 118.554 9.71277 118.554 9.16578C118.554 8.64236 118.685 8.18963 118.948 7.80758C119.211 7.42722 119.722 7.23535 120.485 7.23535C121.223 7.23535 121.718 7.42722 121.969 7.80758C122.22 8.18963 122.344 8.64236 122.344 9.16578C122.344 9.71445 122.22 10.179 121.969 10.5593C121.718 10.9414 121.223 11.1316 120.485 11.1316ZM118.627 27.4317V12.7388H122.272V27.4317H118.627Z" fill="white"/>
<path d="M134.568 27.7901C133.663 27.7901 132.905 27.6521 132.298 27.3794C131.69 27.1051 131.202 26.7786 130.832 26.3966C130.462 26.0162 130.189 25.6695 130.011 25.3598C129.832 25.0501 129.729 24.8717 129.706 24.8229H129.635V33.9735H125.882V12.7405H129.063L129.671 15.9584H129.741C129.765 15.8861 129.854 15.6841 130.009 15.3509C130.164 15.0176 130.414 14.649 130.759 14.2434C131.105 13.8378 131.588 13.4877 132.207 13.1898C132.826 12.892 133.6 12.7422 134.531 12.7422C136.722 12.7422 138.296 13.4457 139.25 14.851C140.203 16.258 140.681 18.0925 140.681 20.3562C140.681 22.6198 140.193 24.4257 139.215 25.7722C138.239 27.1169 136.689 27.7901 134.568 27.7901ZM133.461 24.7152C134.462 24.7152 135.23 24.5065 135.766 24.0891C136.303 23.6717 136.672 23.1231 136.876 22.4448C137.078 21.7666 137.179 21.0563 137.179 20.3175C137.179 19.5786 137.066 18.8818 136.839 18.2255C136.611 17.5708 136.224 17.0339 135.677 16.6165C135.129 16.1991 134.366 15.9904 133.39 15.9904C132.055 15.9904 131.103 16.4011 130.531 17.2241C129.958 18.0471 129.672 19.0771 129.672 20.3158C129.672 21.6033 129.97 22.6569 130.566 23.4799C131.16 24.3046 132.126 24.7152 133.461 24.7152Z" fill="white"/>
<path d="M143.434 27.4317V7.30603H147.009V27.4317H143.434Z" fill="white"/>
<path d="M155.158 27.7901C153.871 27.7901 152.871 27.5393 152.156 27.0395C151.44 26.5396 150.922 25.895 150.601 25.109C150.279 24.3231 150.082 23.495 150.012 22.6249C149.939 21.7548 149.904 20.9621 149.904 20.2485V12.7422H153.443V20.2485C153.443 20.9873 153.514 21.6908 153.657 22.3573C153.8 23.0255 154.103 23.5607 154.569 23.9663C155.034 24.3719 155.742 24.5738 156.697 24.5738C157.626 24.5738 158.329 24.3651 158.805 23.9478C159.282 23.5304 159.603 23.0002 159.77 22.3573C159.936 21.7144 160.032 21.0462 160.056 20.3545L160.091 12.7405H163.809V27.4333H160.699L160.091 24.6883L160.019 24.6445C159.972 24.7876 159.852 25.0266 159.662 25.3598C159.47 25.6931 159.191 26.0515 158.822 26.4319C158.452 26.8139 157.971 27.1354 157.375 27.398C156.779 27.6588 156.04 27.7901 155.158 27.7901Z" fill="white"/>
<path d="M172.711 27.79C172.091 27.79 171.406 27.6823 170.656 27.4686C169.905 27.2548 169.19 26.9317 168.511 26.5042C167.832 26.075 167.273 25.5213 166.832 24.8414C166.391 24.1614 166.17 23.3586 166.17 22.4296H169.53C169.53 22.4767 169.542 22.6383 169.565 22.9109C169.589 23.1853 169.69 23.4949 169.87 23.84C170.048 24.185 170.353 24.4896 170.78 24.7522C171.209 25.0147 171.829 25.146 172.64 25.146C173.593 25.146 174.308 24.9726 174.784 24.6276C175.26 24.2826 175.499 23.882 175.499 23.4293C175.499 22.9059 175.279 22.4935 174.838 22.1956C174.397 21.8977 173.832 21.6537 173.14 21.4635C172.448 21.2733 171.716 21.0764 170.942 20.8745C170.168 20.6725 169.441 20.4049 168.761 20.07C168.082 19.7367 167.527 19.2773 167.098 18.6933C166.669 18.1092 166.455 17.3536 166.455 16.4229C166.455 15.0647 167.004 14.0346 168.099 13.3311C169.195 12.6293 170.588 12.2759 172.281 12.2759C173.473 12.2759 174.581 12.461 175.605 12.8296C176.63 13.1999 177.452 13.7839 178.071 14.5816C178.69 15.3811 179 16.4229 179 17.7104H175.639C175.663 16.9715 175.501 16.4178 175.156 16.0475C174.811 15.679 174.382 15.4215 173.869 15.2784C173.355 15.1353 172.862 15.0647 172.384 15.0647C171.526 15.0647 170.876 15.2144 170.437 15.5107C169.996 15.8086 169.775 16.1957 169.775 16.6719C169.775 17.2206 169.996 17.6431 170.437 17.941C170.878 18.2388 171.45 18.4829 172.152 18.6731C172.855 18.8649 173.594 19.0602 174.368 19.2621C175.143 19.4641 175.881 19.7334 176.585 20.0666C177.287 20.4015 177.859 20.8475 178.3 21.408C178.741 21.9684 178.961 22.7123 178.961 23.643C178.961 25.0501 178.382 26.0918 177.228 26.7701C176.077 27.4501 174.569 27.79 172.711 27.79Z" fill="white"/>
<path d="M118.381 45.1523C117.721 45.1523 117.129 45.0143 116.605 44.74C116.08 44.4656 115.664 44.0533 115.356 43.5029C115.048 42.9526 114.897 42.276 114.905 41.4732C114.905 40.662 115.055 39.9787 115.356 39.425C115.656 38.8712 116.073 38.4539 116.605 38.1762C117.139 37.8968 117.748 37.7571 118.433 37.7571C119.313 37.7571 120.032 37.991 120.589 38.4606C121.148 38.9301 121.503 39.5747 121.654 40.3961H120.804C120.695 39.7531 120.415 39.2802 119.966 38.9756C119.518 38.671 119.007 38.5178 118.431 38.5178C117.585 38.5178 116.922 38.7703 116.44 39.2735C115.959 39.7767 115.716 40.4937 115.716 41.4244C115.716 42.3972 115.952 43.1343 116.422 43.6393C116.891 44.1425 117.548 44.3933 118.394 44.3933C119.029 44.3933 119.569 44.2384 120.018 43.9304C120.466 43.6224 120.742 43.1495 120.843 42.515H121.706C121.553 43.3262 121.196 43.9691 120.634 44.4437C120.07 44.9167 119.32 45.1523 118.381 45.1523Z" fill="#00A0DF"/>
<path d="M125.029 45.1523C124.201 45.1523 123.58 44.9049 123.171 44.4101C122.76 43.9153 122.555 43.2825 122.555 42.5133C122.546 41.7358 122.752 41.0996 123.171 40.6048C123.59 40.1099 124.209 39.8625 125.029 39.8625C125.842 39.8625 126.456 40.1032 126.875 40.5862C127.294 41.0676 127.503 41.7105 127.503 42.515C127.503 43.0149 127.414 43.4625 127.237 43.8597C127.058 44.2569 126.788 44.5717 126.426 44.8056C126.06 45.0362 125.596 45.1523 125.029 45.1523ZM125.029 44.4421C125.468 44.4421 125.81 44.3444 126.05 44.1509C126.291 43.9557 126.461 43.7083 126.557 43.4087C126.655 43.1091 126.703 42.8011 126.703 42.4898C126.703 42.1767 126.655 41.8687 126.557 41.5641C126.459 41.2595 126.291 41.0121 126.05 40.8219C125.81 40.6317 125.468 40.5358 125.029 40.5358C124.59 40.5358 124.25 40.6317 124.007 40.8219C123.766 41.0121 123.597 41.2595 123.501 41.5641C123.403 41.8687 123.354 42.1767 123.354 42.4898C123.354 42.8028 123.403 43.1091 123.501 43.4087C123.598 43.7083 123.766 43.9557 124.007 44.1509C124.25 44.3444 124.59 44.4421 125.029 44.4421Z" fill="#00A0DF"/>
<path d="M128.556 45.0261V39.8625H129.255L129.395 41.1433H129.42C129.428 41.1013 129.465 41.0121 129.534 40.8774C129.602 40.7428 129.706 40.5963 129.846 40.4398C129.985 40.2833 130.169 40.1487 130.398 40.0342C130.627 39.9198 130.918 39.8625 131.273 39.8625C131.72 39.8625 132.074 39.9433 132.331 40.1032C132.589 40.2648 132.782 40.4769 132.909 40.7445C133.035 41.0104 133.116 41.2965 133.149 41.6011C133.183 41.9057 133.2 42.1969 133.2 42.4763V45.0261H132.414V42.4763C132.414 41.9175 132.318 41.4665 132.128 41.1181C131.938 40.7714 131.564 40.598 131.005 40.598C130.625 40.598 130.313 40.6889 130.073 40.8707C129.832 41.0524 129.659 41.2931 129.553 41.5944C129.447 41.894 129.395 42.2221 129.395 42.5773V45.0261H128.556Z" fill="#00A0DF"/>
<path d="M135.571 45.0261C135.258 45.0261 135.041 44.942 134.918 44.772C134.795 44.6037 134.735 44.3697 134.735 44.0735V40.4702H133.924V39.8609C134.195 39.8609 134.395 39.8373 134.526 39.7902C134.657 39.7431 134.74 39.627 134.774 39.4418C134.807 39.2567 134.824 38.9521 134.824 38.528H135.522V39.8592H136.716V40.4685H135.522V44.363H136.728V45.0228H135.571V45.0261Z" fill="#00A0DF"/>
<path d="M139.656 45.1522C139.181 45.1522 138.793 45.0344 138.488 44.7971C138.183 44.5598 137.958 44.2434 137.81 43.8462C137.662 43.449 137.588 42.9962 137.588 42.488C137.588 41.7104 137.759 41.0759 138.101 40.5845C138.443 40.0947 138.961 39.849 139.654 39.849C140.009 39.849 140.307 39.9045 140.548 40.0139C140.789 40.1233 140.984 40.268 141.132 40.4448C141.28 40.6232 141.388 40.8134 141.455 41.0187L141.469 40.9514V39.8473H142.305V45.0243H141.607L141.48 44.0414L141.455 44.0229C141.379 44.1929 141.27 44.3629 141.125 44.5362C140.982 44.7096 140.789 44.856 140.548 44.9738C140.311 45.0933 140.011 45.1522 139.656 45.1522ZM139.974 44.4302C140.499 44.4302 140.876 44.2551 141.11 43.9034C141.342 43.5533 141.458 43.0854 141.458 42.5014C141.458 41.8753 141.337 41.4041 141.097 41.086C140.856 40.7696 140.481 40.6097 139.974 40.6097C139.415 40.6097 139.016 40.7864 138.776 41.1432C138.535 41.4983 138.414 41.946 138.414 42.488C138.414 43.0551 138.537 43.5197 138.781 43.8832C139.027 44.2467 139.424 44.4302 139.974 44.4302Z" fill="#00A0DF"/>
<path d="M146.189 45.1523C145.851 45.1523 145.565 45.0951 145.333 44.9806C145.101 44.8662 144.91 44.7332 144.762 44.5817C144.614 44.4303 144.503 44.2855 144.426 44.1509C144.35 44.0162 144.303 43.9271 144.286 43.885H144.261L144.134 45.0261H143.424V37.8833H144.261L144.272 41.1568H144.298C144.315 41.1147 144.357 41.0255 144.424 40.8909C144.491 40.7562 144.597 40.6081 144.74 40.4465C144.883 40.2867 145.072 40.1487 145.306 40.0342C145.538 39.9198 145.828 39.8625 146.174 39.8625C146.672 39.8625 147.09 39.977 147.423 40.2059C147.756 40.4348 148.009 40.7495 148.179 41.1517C148.347 41.554 148.433 42.0084 148.433 42.515C148.433 43.0216 148.349 43.4743 148.179 43.8732C148.009 44.2704 147.758 44.5834 147.423 44.8123C147.093 45.0378 146.681 45.1523 146.189 45.1523ZM145.987 44.4303C146.393 44.4303 146.715 44.3377 146.952 44.1509C147.189 43.9658 147.362 43.7268 147.472 43.4339C147.581 43.1428 147.637 42.8365 147.637 42.5133C147.637 42.1834 147.578 41.8754 147.46 41.5876C147.341 41.2998 147.155 41.0659 146.901 40.8841C146.647 40.7024 146.322 40.6115 145.925 40.6115C145.425 40.6115 145.028 40.7832 144.732 41.1248C144.436 41.4665 144.288 41.931 144.288 42.5133C144.288 43.1057 144.446 43.5719 144.764 43.9153C145.08 44.2586 145.488 44.4303 145.987 44.4303Z" fill="#00A0DF"/>
<path d="M150.072 39.3037C149.887 39.3037 149.761 39.2549 149.698 39.1573C149.634 39.0597 149.603 38.9352 149.603 38.7837C149.603 38.6575 149.634 38.5447 149.698 38.4471C149.762 38.3495 149.887 38.3007 150.072 38.3007C150.259 38.3007 150.383 38.3495 150.446 38.4471C150.51 38.5447 150.542 38.6558 150.542 38.7837C150.542 38.9352 150.51 39.0614 150.446 39.1573C150.383 39.2549 150.257 39.3037 150.072 39.3037ZM149.666 45.026V39.8625H150.479V45.026H149.666Z" fill="#00A0DF"/>
<path d="M151.912 45.0261V37.8833H152.711V45.0261H151.912Z" fill="#00A0DF"/>
<path d="M154.562 39.3037C154.376 39.3037 154.251 39.2549 154.189 39.1573C154.125 39.0597 154.093 38.9352 154.093 38.7837C154.093 38.6575 154.125 38.5447 154.189 38.4471C154.253 38.3495 154.377 38.3007 154.562 38.3007C154.748 38.3007 154.874 38.3495 154.936 38.4471C155 38.5447 155.032 38.6558 155.032 38.7837C155.032 38.9352 155 39.0614 154.936 39.1573C154.874 39.2549 154.749 39.3037 154.562 39.3037ZM154.157 45.026V39.8625H154.97V45.026H154.157Z" fill="#00A0DF"/>
<path d="M158.571 45.1522C158.072 45.1522 157.656 45.0378 157.321 44.8089C156.986 44.58 156.737 44.2653 156.572 43.863C156.407 43.4608 156.325 43.0114 156.325 42.5116C156.325 41.7424 156.515 41.1079 156.895 40.6081C157.275 40.1099 157.838 39.8591 158.583 39.8591C158.93 39.8591 159.219 39.9164 159.452 40.0308C159.684 40.1452 159.872 40.2832 160.015 40.4431C160.159 40.6047 160.265 40.7528 160.332 40.8875C160.399 41.0221 160.441 41.1113 160.46 41.1534H160.485L160.499 37.8799H161.337V45.0226H160.626L160.5 43.8816H160.475C160.458 43.9236 160.411 44.0128 160.335 44.1475C160.26 44.2821 160.147 44.4269 159.999 44.5783C159.851 44.7298 159.66 44.8644 159.428 44.9772C159.196 45.095 158.91 45.1522 158.571 45.1522ZM158.775 44.4302C159.273 44.4302 159.682 44.2586 159.999 43.9169C160.315 43.5736 160.475 43.1074 160.475 42.5149C160.475 41.9309 160.327 41.4681 160.031 41.1264C159.734 40.7848 159.337 40.6131 158.837 40.6131C158.44 40.6131 158.114 40.704 157.861 40.8858C157.607 41.0675 157.422 41.3032 157.302 41.5893C157.185 41.8771 157.124 42.1851 157.124 42.5149C157.124 42.8364 157.18 43.1427 157.289 43.4356C157.398 43.7267 157.572 43.9657 157.809 44.1525C158.046 44.336 158.369 44.4302 158.775 44.4302Z" fill="#00A0DF"/>
<path d="M164.28 45.1522C163.806 45.1522 163.417 45.0344 163.112 44.7971C162.808 44.5598 162.582 44.2434 162.434 43.8462C162.286 43.449 162.212 42.9962 162.212 42.488C162.212 41.7104 162.383 41.0759 162.725 40.5845C163.067 40.0947 163.585 39.849 164.279 39.849C164.634 39.849 164.932 39.9045 165.172 40.0139C165.413 40.1233 165.608 40.268 165.756 40.4448C165.904 40.6232 166.012 40.8134 166.079 41.0187L166.093 40.9514V39.8473H166.929V45.0243H166.231L166.105 44.0414L166.079 44.0229C166.004 44.1929 165.893 44.3629 165.75 44.5362C165.606 44.7096 165.413 44.856 165.172 44.9738C164.933 45.0933 164.635 45.1522 164.28 45.1522ZM164.598 44.4302C165.123 44.4302 165.5 44.2551 165.734 43.9034C165.967 43.5533 166.083 43.0854 166.083 42.5014C166.083 41.8753 165.962 41.4041 165.721 41.086C165.48 40.7696 165.105 40.6097 164.598 40.6097C164.04 40.6097 163.641 40.7864 163.4 41.1432C163.159 41.4983 163.038 41.946 163.038 42.488C163.038 43.0551 163.161 43.5197 163.405 43.8832C163.651 44.2467 164.048 44.4302 164.598 44.4302Z" fill="#00A0DF"/>
<path d="M170.294 45.1522C169.794 45.1522 169.378 45.0378 169.043 44.8089C168.71 44.58 168.459 44.2653 168.294 43.863C168.129 43.4608 168.047 43.0114 168.047 42.5116C168.047 41.7424 168.237 41.1079 168.617 40.6081C168.998 40.1099 169.56 39.8591 170.306 39.8591C170.652 39.8591 170.942 39.9164 171.174 40.0308C171.406 40.1452 171.595 40.2832 171.738 40.4431C171.881 40.6047 171.987 40.7528 172.054 40.8875C172.121 41.0221 172.164 41.1113 172.182 41.1534H172.207L172.219 37.8799H173.057V45.0226H172.347L172.221 43.8816H172.196C172.179 43.9236 172.132 44.0128 172.056 44.1475C171.98 44.2821 171.867 44.4269 171.719 44.5783C171.571 44.7298 171.381 44.8644 171.149 44.9772C170.918 45.095 170.632 45.1522 170.294 45.1522ZM170.497 44.4302C170.996 44.4302 171.405 44.2586 171.721 43.9169C172.037 43.5736 172.197 43.1074 172.197 42.5149C172.197 41.9309 172.049 41.4681 171.753 41.1264C171.457 40.7848 171.06 40.6131 170.56 40.6131C170.162 40.6131 169.836 40.704 169.584 40.8858C169.329 41.0675 169.144 41.3032 169.025 41.5893C168.907 41.8771 168.846 42.1851 168.846 42.5149C168.846 42.8364 168.902 43.1427 169.011 43.4356C169.121 43.7267 169.294 43.9657 169.531 44.1525C169.769 44.336 170.092 44.4302 170.497 44.4302Z" fill="#00A0DF"/>
<path d="M176.536 45.1523C175.969 45.1523 175.503 45.0227 175.134 44.7652C174.767 44.5077 174.496 44.1728 174.323 43.7622C174.15 43.3515 174.064 42.9274 174.064 42.4881C174.064 42.0068 174.16 41.5641 174.348 41.1619C174.538 40.7596 174.818 40.4415 175.186 40.2042C175.555 39.9669 175.996 39.8491 176.513 39.8491C177.172 39.8491 177.723 40.0629 178.162 40.4904C178.601 40.9178 178.838 41.4901 178.872 42.2087C178.881 42.2424 178.886 42.335 178.886 42.4881H174.851C174.851 43.1142 174.998 43.5989 175.289 43.9406C175.58 44.2839 175.992 44.4539 176.526 44.4539C176.923 44.4539 177.265 44.3529 177.548 44.1493C177.83 43.9456 178.005 43.6713 178.074 43.3246H178.874C178.79 43.848 178.541 44.2839 178.125 44.6306C177.707 44.979 177.179 45.1523 176.536 45.1523ZM174.873 42.0825H178.044C178.044 41.9058 177.995 41.6937 177.898 41.448C177.8 41.2023 177.64 40.9885 177.416 40.8068C177.192 40.625 176.884 40.5341 176.496 40.5341C176.141 40.5341 175.849 40.6098 175.621 40.763C175.392 40.9145 175.218 41.1097 175.1 41.347C174.984 41.5826 174.907 41.8284 174.873 42.0825Z" fill="#00A0DF"/>
<path d="M41.9545 27.9433C41.4293 27.9433 41.0035 27.5175 41.0035 26.9924V7.5753C41.0035 7.0502 41.4293 6.62439 41.9545 6.62439C42.4796 6.62439 42.9054 7.0502 42.9054 7.5753V26.9924C42.9071 27.5175 42.4812 27.9433 41.9545 27.9433Z" fill="white"/>
<path d="M33.5074 27.9433C32.9823 27.9433 32.5565 27.5175 32.5565 26.9924V7.5753C32.5565 7.0502 32.9823 6.62439 33.5074 6.62439C34.0325 6.62439 34.4583 7.0502 34.4583 7.5753V26.9924C34.4583 27.5175 34.0325 27.9433 33.5074 27.9433Z" fill="white"/>
<path d="M25.0586 22.8118C24.6378 22.8118 24.2979 22.4701 24.2979 22.051V7.66283C24.2979 7.24207 24.6395 6.9021 25.0586 6.9021C25.4793 6.9021 25.8193 7.24375 25.8193 7.66283V22.051C25.8193 22.4701 25.4793 22.8118 25.0586 22.8118Z" fill="white"/>
<path d="M16.6099 20.1946C16.2951 20.1946 16.0393 19.9388 16.0393 19.624V5.23583C16.0393 4.9211 16.2951 4.66528 16.6099 4.66528C16.9246 4.66528 17.1804 4.9211 17.1804 5.23583V19.624C17.1821 19.9388 16.9263 20.1946 16.6099 20.1946Z" fill="white"/>
<path d="M9.4653 17.7677C9.15058 17.7677 8.89478 17.5119 8.89478 17.1971V2.80895C8.89478 2.49422 9.15058 2.2384 9.4653 2.2384C9.78003 2.2384 10.0359 2.49422 10.0359 2.80895V17.1971C10.0375 17.5119 9.78171 17.7677 9.4653 17.7677Z" fill="white"/>
<path d="M3.19103 15.1489C2.98066 15.1489 2.81067 14.9789 2.81067 14.7686V0.380366C2.81067 0.169987 2.98066 0 3.19103 0C3.40141 0 3.5714 0.169987 3.5714 0.380366V14.7686C3.57308 14.9789 3.40141 15.1489 3.19103 15.1489Z" fill="white"/>
<path d="M46.1789 27.9433C45.6538 27.9433 45.228 27.5175 45.228 26.9924V7.5753C45.228 7.0502 45.6538 6.62439 46.1789 6.62439C46.704 6.62439 47.1299 7.0502 47.1299 7.5753V26.9924C47.1315 27.5175 46.7057 27.9433 46.1789 27.9433Z" fill="#00A0DF"/>
<path d="M37.7318 27.9433C37.2067 27.9433 36.7809 27.5175 36.7809 26.9924V7.5753C36.7809 7.0502 37.2067 6.62439 37.7318 6.62439C38.2569 6.62439 38.6827 7.0502 38.6827 7.5753V26.9924C38.6827 27.5175 38.2569 27.9433 37.7318 27.9433Z" fill="#00A0DF"/>
<path d="M29.2829 27.9433C28.7578 27.9433 28.332 27.5175 28.332 26.9924V7.5753C28.332 7.0502 28.7578 6.62439 29.2829 6.62439C29.808 6.62439 30.2338 7.0502 30.2338 7.5753V26.9924C30.2338 27.5175 29.808 27.9433 29.2829 27.9433Z" fill="#00A0DF"/>
<path d="M20.8342 27.6656C20.4135 27.6656 20.0735 27.324 20.0735 26.9049V12.5167C20.0735 12.096 20.4151 11.756 20.8342 11.756C21.255 11.756 21.5949 12.0976 21.5949 12.5167V26.9049C21.5949 27.3257 21.255 27.6656 20.8342 27.6656Z" fill="#00A0DF"/>
<path d="M13.0384 29.9025C12.7237 29.9025 12.4679 29.6466 12.4679 29.3319V14.9437C12.4679 14.629 12.7237 14.3732 13.0384 14.3732C13.3532 14.3732 13.609 14.629 13.609 14.9437V29.3319C13.609 29.6466 13.3532 29.9025 13.0384 29.9025Z" fill="#00A0DF"/>
<path d="M6.00341 32.3292C5.68868 32.3292 5.43286 32.0734 5.43286 31.7587V17.3705C5.43286 17.0557 5.68868 16.7999 6.00341 16.7999C6.31814 16.7999 6.57396 17.0557 6.57396 17.3705V31.7587C6.57396 32.0734 6.31814 32.3292 6.00341 32.3292Z" fill="#00A0DF"/>
<path d="M0.380366 34.566C0.169987 34.566 0 34.3961 0 34.1857V19.7975C0 19.5871 0.169987 19.4171 0.380366 19.4171C0.590744 19.4171 0.760732 19.5871 0.760732 19.7975V34.1857C0.760732 34.3961 0.590744 34.566 0.380366 34.566Z" fill="#00A0DF"/>
</svg>
